<svg width="124" height="27" viewBox="0 0 124 27" fill="none" xmlns="http://www.w3.org/2000/svg">
<path d="M19.3792 20.8614C19.3792 20.9329 19.3792 21.0043 19.3069 21.0757C19.2346 21.1471 19.2346 21.1471 19.0899 21.2186C19.0176 21.29 18.873 21.29 18.7284 21.29C18.5838 21.29 18.3668 21.29 18.1499 21.29C17.933 21.29 17.716 21.29 17.5714 21.29C17.4268 21.29 17.2822 21.2186 17.2099 21.2186C17.1376 21.1471 17.0653 21.1471 16.9929 21.0757C16.9206 21.0043 16.9206 20.9329 16.9206 20.8614V13.0757C16.9206 12.5043 16.8483 12.0757 16.776 11.5757C16.7037 11.1471 16.5591 10.7186 16.3421 10.4329C16.1252 10.0757 15.836 9.86143 15.5467 9.71858C15.1852 9.57572 14.8236 9.43286 14.3898 9.43286C13.8113 9.43286 13.3051 9.64715 12.7266 10.0757C12.1481 10.5043 11.5697 11.0757 10.9189 11.9329V20.8614C10.9189 20.9329 10.9189 21.0043 10.8466 21.0757C10.7743 21.1471 10.7742 21.1471 10.6296 21.2186C10.5573 21.29 10.4127 21.29 10.2681 21.29C10.1235 21.29 9.90653 21.29 9.68959 21.29C9.47266 21.29 9.25573 21.29 9.11111 21.29C8.96649 21.29 8.82187 21.2186 8.74956 21.2186C8.67725 21.1471 8.60494 21.1471 8.53263 21.0757C8.53263 21.0043 8.46032 20.9329 8.46032 20.8614V13.0757C8.46032 12.5043 8.38801 12.0757 8.3157 11.5757C8.24339 11.1471 8.02645 10.7186 7.80952 10.4329C7.59259 10.0757 7.30335 9.86143 7.01411 9.71858C6.72487 9.57572 6.29101 9.43286 5.85714 9.43286C5.27866 9.43286 4.77249 9.64715 4.194 10.0757C3.61552 10.5043 3.03704 11.0757 2.38624 11.9329V20.8614C2.38624 20.9329 2.38624 21.0043 2.31393 21.0757C2.24162 21.1471 2.24162 21.1471 2.097 21.2186C2.02469 21.29 1.88007 21.29 1.73545 21.29C1.59083 21.29 1.3739 21.29 1.15697 21.29C0.940035 21.29 0.723104 21.29 0.578483 21.29C0.433862 21.29 0.289242 21.2186 0.216931 21.2186C0.144621 21.1471 0.0723104 21.1471 0 21.0757C0.216931 21.0043 0.216931 20.9329 0.216931 20.8614V8.07572C0.216931 8.00429 0.216931 7.93286 0.289242 7.86143C0.289242 7.79 0.361552 7.79 0.433862 7.71858C0.506173 7.64715 0.650794 7.64715 0.795414 7.64715C0.940035 7.64715 1.08466 7.64715 1.30159 7.64715C1.51852 7.64715 1.66314 7.64715 1.80776 7.64715C1.95238 7.64715 2.02469 7.71858 2.097 7.71858C2.16931 7.79 2.24162 7.79 2.24162 7.86143C2.24162 7.93286 2.31393 8.00429 2.31393 8.07572V9.79C3.03704 9.00429 3.76014 8.43286 4.41093 8.00429C5.06173 7.64715 5.78483 7.43286 6.50794 7.43286C7.01411 7.43286 7.52028 7.50429 7.95414 7.64715C8.38801 7.79 8.74956 7.93286 9.11111 8.14715C9.40035 8.36143 9.68959 8.64715 9.97884 8.93286C10.1958 9.21858 10.4127 9.57572 10.5573 9.93286C10.9912 9.50429 11.425 9.07572 11.7866 8.79C12.1481 8.50429 12.5097 8.21858 12.8713 8.00429C13.2328 7.79 13.5944 7.64715 13.9559 7.57572C14.3175 7.50429 14.6067 7.43286 14.9683 7.43286C15.836 7.43286 16.4868 7.57572 17.0653 7.86143C17.6437 8.14715 18.0776 8.50429 18.4392 9.00429C18.8007 9.50429 19.0176 10.0757 19.1623 10.7186C19.3069 11.3614 19.3792 12.0757 19.3792 12.79V20.8614Z" fill="white"/>
<path d="M27.478 21.2185L25.7425 25.9328C25.6702 26.0757 25.5256 26.2185 25.3087 26.29C25.0917 26.3614 24.7302 26.4328 24.224 26.4328C24.0071 26.4328 23.7901 26.4328 23.6455 26.4328C23.5009 26.4328 23.3563 26.3614 23.284 26.29C23.2117 26.2185 23.1393 26.1471 23.1393 26.0757C23.1393 26.0043 23.1393 25.8614 23.2117 25.7185L25.0194 21.29C24.9471 21.2185 24.8748 21.2185 24.8025 21.0757C24.7302 21.0043 24.6579 20.9328 24.6579 20.79L20.03 8.57568C19.9577 8.3614 19.8854 8.21854 19.8854 8.07568C19.8854 7.93283 19.9577 7.8614 20.03 7.78997C20.1023 7.71854 20.2469 7.64711 20.3915 7.64711C20.5362 7.64711 20.8254 7.64711 21.0423 7.64711C21.3316 7.64711 21.5485 7.64711 21.6931 7.64711C21.8378 7.64711 21.9824 7.71854 22.0547 7.71854C22.127 7.78997 22.1993 7.78997 22.2716 7.8614C22.3439 7.93283 22.3439 8.00425 22.4162 8.14711L26.1041 18.3614H26.1764L29.7196 8.07568C29.7919 7.8614 29.8642 7.78997 29.9365 7.71854C30.0088 7.64711 30.1535 7.64711 30.2981 7.57568C30.4427 7.57568 30.6596 7.57568 31.0212 7.57568C31.3104 7.57568 31.5273 7.57568 31.672 7.57568C31.8166 7.57568 31.9612 7.64711 32.0335 7.71854C32.1058 7.78997 32.1781 7.8614 32.1781 8.00425C32.1781 8.14711 32.1781 8.28997 32.1058 8.43283L27.478 21.2185Z" fill="white"/>
<path d="M66.4533 17.3614C66.4533 18.0043 66.3087 18.5757 66.0917 19.0757C65.8748 19.5757 65.5132 20.0043 65.0794 20.3614C64.6455 20.7185 64.067 21.0043 63.4885 21.1471C62.8378 21.3614 62.187 21.4328 61.4639 21.4328C61.03 21.4328 60.5961 21.4328 60.1623 21.3614C59.7284 21.29 59.3669 21.2185 59.0053 21.0757C58.6438 20.9328 58.4268 20.8614 58.1376 20.7185C57.9206 20.5757 57.776 20.5043 57.6314 20.4328C57.5591 20.3614 57.4145 20.2185 57.4145 20.0043C57.3422 19.8614 57.3422 19.6471 57.3422 19.3614C57.3422 19.1471 57.3422 19.0043 57.3422 18.9328C57.3422 18.79 57.4145 18.7185 57.4145 18.6471C57.4145 18.5757 57.4868 18.5043 57.5591 18.5043C57.6314 18.5043 57.7037 18.4328 57.7037 18.4328C57.776 18.4328 57.993 18.5043 58.1376 18.6471C58.3545 18.79 58.5714 18.9328 58.933 19.0757C59.2222 19.2185 59.5838 19.3614 60.0176 19.5043C60.4515 19.6471 60.8854 19.7185 61.4639 19.7185C61.8977 19.7185 62.2593 19.6471 62.5485 19.5757C62.9101 19.5043 63.127 19.3614 63.4162 19.2185C63.6332 19.0757 63.8501 18.8614 63.9947 18.5757C64.1393 18.29 64.2117 18.0043 64.2117 17.6471C64.2117 17.29 64.1393 17.0043 63.9224 16.7185C63.7055 16.5043 63.4885 16.29 63.1993 16.0757C62.9101 15.8614 62.5485 15.7185 62.187 15.5757C61.8254 15.4328 61.3915 15.29 61.03 15.1471C60.5961 15.0043 60.2346 14.79 59.873 14.5757C59.5115 14.3614 59.1499 14.1471 58.8607 13.8614C58.5714 13.5757 58.2822 13.2185 58.1376 12.79C57.9206 12.3614 57.8483 11.8614 57.8483 11.3614C57.8483 10.8614 57.9206 10.3614 58.1376 9.93283C58.3545 9.50425 58.6438 9.07568 59.0053 8.71854C59.3669 8.3614 59.873 8.07568 60.4515 7.8614C61.03 7.64711 61.7531 7.57568 62.4762 7.57568C62.8378 7.57568 63.1993 7.57568 63.4885 7.64711C63.8501 7.71854 64.1393 7.78997 64.4286 7.8614C64.7178 7.93283 64.9348 8.00425 65.1517 8.14711C65.3686 8.21854 65.5132 8.3614 65.5856 8.43283C65.6579 8.50425 65.7302 8.57568 65.8025 8.64711C65.8025 8.71854 65.8748 8.78997 65.8748 8.8614C65.8748 8.93283 65.8748 9.00425 65.9471 9.14711C65.9471 9.21854 65.9471 9.3614 65.9471 9.50425C65.9471 9.64711 65.9471 9.78997 65.9471 9.93283C65.9471 10.0757 65.8748 10.1471 65.8748 10.2185C65.8748 10.29 65.8025 10.3614 65.7302 10.3614C65.6579 10.3614 65.6579 10.4328 65.5856 10.4328C65.5132 10.4328 65.3686 10.3614 65.224 10.29C65.0794 10.2185 64.8624 10.0757 64.5732 9.93283C64.284 9.78997 63.9947 9.71854 63.6332 9.57568C63.2716 9.50425 62.9101 9.43283 62.4039 9.43283C61.97 9.43283 61.6808 9.50425 61.3192 9.57568C61.03 9.64711 60.7408 9.78997 60.5961 9.93283C60.3792 10.0757 60.2346 10.29 60.1623 10.5043C60.09 10.7185 60.0176 11.0043 60.0176 11.2185C60.0176 11.5757 60.09 11.8614 60.3069 12.1471C60.5238 12.4328 60.7408 12.6471 61.03 12.79C61.3192 13.0043 61.6808 13.1471 62.0423 13.29C62.4039 13.4328 62.8378 13.5757 63.2716 13.79C63.7055 13.9328 64.067 14.1471 64.5009 14.3614C64.8624 14.5757 65.224 14.79 65.5856 15.0757C65.8748 15.3614 66.164 15.7185 66.3087 16.0757C66.381 16.3614 66.4533 16.79 66.4533 17.3614Z" fill="white"/>
<path d="M79.3968 20.8614C79.3968 20.9329 79.3968 21.0043 79.3245 21.0757C79.2522 21.1471 79.2522 21.1471 79.1076 21.2186C79.0352 21.29 78.8906 21.29 78.746 21.29C78.6014 21.29 78.3845 21.29 78.1675 21.29C77.9506 21.29 77.7337 21.29 77.589 21.29C77.4444 21.29 77.2998 21.2186 77.2275 21.2186C77.1552 21.1471 77.0829 21.1471 77.0106 21.0757C76.9382 21.0043 76.9382 20.9329 76.9382 20.8614V13.3614C76.9382 12.6471 76.8659 12.0757 76.7936 11.5757C76.649 11.1471 76.5044 10.7186 76.2874 10.4329C76.0705 10.1471 75.7813 9.86143 75.4197 9.71858C75.0582 9.57572 74.6966 9.43286 74.1905 9.43286C73.612 9.43286 73.0335 9.64715 72.3827 10.0757C71.8042 10.5043 71.1534 11.0757 70.5026 11.9329V20.8614C70.5026 20.9329 70.5026 21.0043 70.4303 21.0757C70.358 21.1471 70.358 21.1471 70.2134 21.2186C70.1411 21.29 69.9964 21.29 69.8518 21.29C69.7072 21.29 69.4903 21.29 69.2733 21.29C69.0564 21.29 68.8395 21.29 68.6949 21.29C68.5502 21.29 68.4056 21.2186 68.3333 21.2186C68.261 21.1471 68.1887 21.1471 68.1164 21.0757C68.1164 21.0043 68.0441 20.9329 68.0441 20.8614V1.86143C68.0441 1.79 68.0441 1.71858 68.1164 1.64715C68.1164 1.57572 68.1887 1.57572 68.3333 1.50429C68.4056 1.43286 68.5502 1.43286 68.6949 1.43286C68.8395 1.43286 69.0564 1.43286 69.2733 1.43286C69.4903 1.43286 69.7072 1.43286 69.8518 1.43286C69.9964 1.43286 70.1411 1.50429 70.2134 1.50429C70.2857 1.57572 70.358 1.57572 70.4303 1.64715C70.5026 1.71858 70.5026 1.79 70.5026 1.86143V9.50429C71.1534 8.79 71.8765 8.29 72.5273 7.93286C73.2504 7.57572 73.9012 7.43286 74.6243 7.43286C75.492 7.43286 76.2151 7.57572 76.7936 7.86143C77.3721 8.14715 77.8783 8.50429 78.2398 9.00429C78.6014 9.50429 78.8906 10.0757 79.0352 10.7186C79.1799 11.3614 79.2522 12.1471 79.2522 13.0757V20.8614H79.3968Z" fill="white"/>
<path d="M94.1481 14.29C94.1481 15.3614 94.0035 16.29 93.7142 17.1471C93.425 18.0043 92.9911 18.79 92.485 19.4329C91.9065 20.0757 91.2557 20.5757 90.388 20.9329C89.5925 21.29 88.5802 21.4329 87.4955 21.4329C86.4109 21.4329 85.4709 21.29 84.7478 20.9329C83.9523 20.6471 83.3015 20.1471 82.7954 19.5757C82.2892 19.0043 81.8553 18.29 81.6384 17.4329C81.3492 16.5757 81.2769 15.6471 81.2769 14.5757C81.2769 13.5043 81.4215 12.5757 81.7107 11.7186C82 10.8614 82.3615 10.0757 82.94 9.43286C83.5185 8.79 84.1693 8.29 84.9647 7.93286C85.7601 7.57572 86.7724 7.43286 87.8571 7.43286C88.9418 7.43286 89.8095 7.57572 90.6049 7.93286C91.4003 8.21858 92.0511 8.71858 92.5573 9.29C93.0634 9.86143 93.4973 10.5757 93.7142 11.4329C94.0035 12.29 94.1481 13.2186 94.1481 14.29ZM91.6896 14.5043C91.6896 13.79 91.6172 13.1471 91.4726 12.5757C91.328 11.9329 91.1111 11.4329 90.8218 10.9329C90.5326 10.4329 90.0987 10.0757 89.5926 9.86143C89.0864 9.57572 88.4356 9.43286 87.7125 9.43286C86.9894 9.43286 86.4109 9.57572 85.9047 9.79C85.3985 10.0043 84.9647 10.3614 84.6754 10.8614C84.3139 11.29 84.097 11.8614 83.9523 12.4329C83.8077 13.0757 83.7354 13.7186 83.7354 14.4329C83.7354 15.1471 83.8077 15.79 83.9523 16.4329C84.097 17.0757 84.3139 17.5757 84.6031 18.0757C84.8924 18.5043 85.3262 18.9329 85.8324 19.1471C86.3386 19.4329 86.9894 19.5757 87.7125 19.5757C88.4356 19.5757 89.0141 19.4329 89.5202 19.2186C90.0264 19.0043 90.4603 18.6471 90.7495 18.2186C91.1111 17.79 91.328 17.2186 91.4726 16.6471C91.6172 15.8614 91.6896 15.2186 91.6896 14.5043Z" fill="white"/>
<path d="M113.961 8.07575C113.961 8.14718 113.961 8.21861 113.961 8.29004C113.961 8.36147 113.889 8.50433 113.889 8.64718L110.057 20.79C110.057 20.8615 109.984 21.0043 109.912 21.0758C109.84 21.1472 109.767 21.2186 109.623 21.2186C109.478 21.29 109.333 21.29 109.189 21.29C108.972 21.29 108.755 21.29 108.466 21.29C108.176 21.29 107.887 21.29 107.743 21.29C107.526 21.29 107.381 21.2186 107.236 21.2186C107.092 21.1472 107.019 21.1472 106.947 21.0758C106.875 21.0043 106.875 20.9329 106.803 20.8615L104.127 11.5758V11.4329V11.5758L101.596 20.8615C101.596 20.9329 101.524 21.0758 101.452 21.1472C101.379 21.2186 101.307 21.29 101.162 21.29C101.018 21.3615 100.873 21.3615 100.656 21.3615C100.439 21.3615 100.222 21.3615 99.933 21.3615C99.6438 21.3615 99.4269 21.3615 99.2099 21.3615C98.993 21.3615 98.8484 21.29 98.7761 21.29C98.6315 21.2186 98.5591 21.2186 98.4868 21.1472C98.4145 21.0758 98.4145 21.0043 98.3422 20.9329L94.5821 8.79004C94.5098 8.64718 94.5098 8.50433 94.5098 8.4329C94.5098 8.36147 94.5098 8.29004 94.5098 8.21861C94.5098 8.14718 94.5098 8.07575 94.5821 8.00432C94.6544 7.9329 94.6544 7.9329 94.799 7.86147C94.8713 7.86147 95.0159 7.79004 95.1606 7.79004C95.3052 7.79004 95.5221 7.79004 95.7391 7.79004C96.0283 7.79004 96.2452 7.79004 96.3898 7.79004C96.5345 7.79004 96.6791 7.86147 96.7514 7.86147C96.8237 7.86147 96.896 7.9329 96.9683 8.00432C97.0406 8.07575 97.0406 8.14718 97.0406 8.21861L100.15 18.7186V18.8615V18.7186L103.042 8.21861C103.042 8.14718 103.115 8.07575 103.115 8.00432C103.187 7.9329 103.259 7.86147 103.332 7.86147C103.404 7.86147 103.549 7.79004 103.693 7.79004C103.838 7.79004 104.055 7.79004 104.272 7.79004C104.489 7.79004 104.706 7.79004 104.85 7.79004C104.995 7.79004 105.139 7.86147 105.212 7.86147C105.284 7.86147 105.356 7.9329 105.429 8.00432C105.501 8.07575 105.501 8.14718 105.501 8.21861L108.61 18.79V18.9329V18.79L111.647 8.29004C111.647 8.21861 111.72 8.14718 111.72 8.07575C111.792 8.00433 111.864 7.9329 111.937 7.9329C112.009 7.9329 112.154 7.86147 112.298 7.86147C112.443 7.86147 112.66 7.86147 112.877 7.86147C113.094 7.86147 113.31 7.86147 113.455 7.86147C113.6 7.86147 113.672 7.86147 113.817 7.9329C113.889 8.00433 113.961 8.00433 113.961 8.07575C113.961 7.9329 113.961 7.9329 113.961 8.07575Z" fill="white"/>
<path d="M123.217 17.3614C123.217 18.0043 123.072 18.5757 122.855 19.0757C122.638 19.5757 122.277 20.0043 121.843 20.3614C121.409 20.7186 120.831 21.0043 120.252 21.1471C119.601 21.3614 118.951 21.4328 118.228 21.4328C117.794 21.4328 117.36 21.4328 116.926 21.3614C116.492 21.29 116.131 21.2186 115.769 21.0757C115.407 20.9328 115.19 20.8614 114.901 20.7186C114.684 20.5757 114.467 20.5043 114.395 20.4328C114.323 20.3614 114.25 20.2186 114.178 20.0043C114.106 19.8614 114.106 19.5757 114.106 19.29C114.106 19.0757 114.106 18.9328 114.106 18.8614C114.106 18.7186 114.178 18.6471 114.178 18.5757C114.178 18.5043 114.25 18.4328 114.323 18.4328C114.395 18.4328 114.467 18.3614 114.467 18.3614C114.54 18.3614 114.757 18.4328 114.901 18.5757C115.118 18.7186 115.335 18.8614 115.697 19.0043C115.986 19.1471 116.347 19.29 116.781 19.4328C117.215 19.5757 117.649 19.6471 118.228 19.6471C118.661 19.6471 119.023 19.5757 119.312 19.5043C119.601 19.4328 119.891 19.29 120.18 19.1471C120.397 19.0043 120.614 18.79 120.758 18.5043C120.903 18.2186 120.975 17.9328 120.975 17.5757C120.975 17.2186 120.903 16.9328 120.686 16.6471C120.469 16.4328 120.252 16.2186 119.963 16.0043C119.674 15.79 119.312 15.6471 118.951 15.5043C118.589 15.3614 118.155 15.2186 117.794 15.0757C117.36 14.9328 116.998 14.7186 116.637 14.5043C116.275 14.29 115.914 14.0757 115.624 13.79C115.335 13.5043 115.046 13.1471 114.901 12.7186C114.684 12.29 114.612 11.79 114.612 11.29C114.612 10.79 114.684 10.29 114.901 9.86142C115.118 9.43284 115.407 9.00427 115.769 8.64713C116.131 8.28999 116.637 8.00427 117.215 7.78999C117.794 7.5757 118.517 7.50427 119.24 7.50427C119.601 7.50427 119.963 7.50427 120.252 7.5757C120.614 7.64713 120.903 7.71856 121.192 7.78999C121.481 7.86142 121.698 7.93284 121.915 8.0757C122.132 8.14713 122.277 8.28999 122.349 8.36142C122.422 8.43284 122.494 8.50427 122.566 8.5757C122.566 8.64713 122.638 8.71856 122.638 8.78999C122.638 8.86142 122.638 8.93284 122.711 9.0757C122.711 9.14713 122.711 9.28999 122.711 9.43284C122.711 9.5757 122.711 9.71856 122.711 9.86142C122.711 10.0043 122.638 10.0757 122.638 10.1471C122.638 10.2186 122.566 10.29 122.494 10.29C122.422 10.29 122.422 10.3614 122.349 10.3614C122.277 10.3614 122.132 10.29 121.988 10.2186C121.843 10.1471 121.626 10.0043 121.337 9.86142C121.048 9.71856 120.758 9.64713 120.397 9.50427C120.035 9.43284 119.674 9.36142 119.168 9.36142C118.734 9.36142 118.444 9.43284 118.083 9.50427C117.794 9.5757 117.504 9.71856 117.36 9.86142C117.143 10.0043 116.998 10.2186 116.926 10.4328C116.854 10.6471 116.781 10.9328 116.781 11.1471C116.781 11.5043 116.854 11.79 117.071 12.0757C117.287 12.3614 117.504 12.5757 117.794 12.7186C118.083 12.9328 118.444 13.0757 118.806 13.2186C119.168 13.3614 119.601 13.5043 120.035 13.7186C120.469 13.8614 120.831 14.0757 121.265 14.29C121.698 14.5043 121.988 14.7186 122.349 15.0043C122.638 15.29 122.928 15.6471 123.072 16.0043C123.145 16.3614 123.217 16.79 123.217 17.3614Z" fill="white"/>
<path d="M38.2522 21.5043C36.0106 21.5043 34.2751 19.7186 34.2751 17.5758V11.2186C34.2751 9.00432 36.0829 7.29004 38.2522 7.29004H50.9065C53.1482 7.29004 54.8836 9.07575 54.8836 11.2186V17.5758C54.8836 19.79 53.0759 21.5043 50.9065 21.5043H38.2522ZM36.5168 11.9329V16.8615C36.5168 18.0758 37.5291 19.0758 38.7584 19.0758H50.3281C51.5573 19.0758 52.5697 18.0758 52.5697 16.8615V11.9329C52.5697 10.7186 51.5573 9.71861 50.3281 9.71861H38.7584C37.5291 9.71861 36.5168 10.7186 36.5168 11.9329Z" fill="#CC0000"/>
<path d="M44.5432 3.79004C42.9523 3.79004 41.7231 5.00433 41.6508 6.50432H47.4356C47.3633 5.00433 46.134 3.79004 44.5432 3.79004Z" fill="#CC0000"/>
<path d="M42.0847 5.00431L38.6861 1.64716C38.5415 1.50431 38.5415 1.36145 38.6861 1.21859C38.8307 1.07574 38.9753 1.07574 39.12 1.21859L42.5185 4.57574C42.6632 4.71859 42.6632 4.86145 42.5185 5.00431C42.4462 5.07574 42.2293 5.07574 42.0847 5.00431Z" fill="#CC0000"/>
<path d="M39.3427 1.81824C39.6815 1.48351 39.6815 0.940804 39.3427 0.606072C39.0038 0.27134 38.4544 0.27134 38.1155 0.606072C37.7767 0.940804 37.7767 1.48351 38.1155 1.81824C38.4544 2.15298 39.0038 2.15298 39.3427 1.81824Z" fill="#CC0000"/>
<path d="M46.5679 4.50432L49.9665 1.14718C50.1112 1.00432 50.2558 1.00432 50.4004 1.14718C50.545 1.29004 50.545 1.4329 50.4004 1.57575L47.0018 4.9329C46.8572 5.07575 46.7126 5.07575 46.5679 4.9329C46.4233 4.86147 46.4233 4.64718 46.5679 4.50432Z" fill="#CC0000"/>
<path d="M50.8513 1.84399C51.1897 1.50879 51.1889 0.966079 50.8496 0.631821C50.5103 0.297562 49.9609 0.298332 49.6225 0.633537C49.2841 0.968742 49.2849 1.51145 49.6242 1.84571C49.9635 2.17997 50.513 2.1792 50.8513 1.84399Z" fill="#CC0000"/>
</svg>
